<?xml version="1.0" encoding="UTF-8"?>
<!DOCTYPE svg PUBLIC "-//W3C//DTD SVG 1.1//EN" "http://www.w3.org/Graphics/SVG/1.1/DTD/svg11.dtd">
<!-- Creator: CorelDRAW 2019 (64-Bit) -->
<svg xmlns="http://www.w3.org/2000/svg" xml:space="preserve" width="562px" height="388px" version="1.1" style="shape-rendering:geometricPrecision; text-rendering:geometricPrecision; image-rendering:optimizeQuality; fill-rule:evenodd; clip-rule:evenodd"
viewBox="0 0 504.54 348.33"
 xmlns:xlink="http://www.w3.org/1999/xlink">
 <defs>
  <style type="text/css">
   <![CDATA[
    .str0 {stroke:black;stroke-width:2.12;stroke-miterlimit:22.9256}
    .fil0 {fill:none}
   ]]>
  </style>
   <clipPath id="id0">
    <rect width="504.54" height="348.33"/>
   </clipPath>
 </defs>
 <g id="Слой_x0020_1">
  <metadata id="CorelCorpID_0Corel-Layer"/>
  <g style="clip-path:url(#id0)">
   <image x="0" y="0" width="504.54" height="348.33" xlink:href="kitchen4_Images\kitchen4_ImgID1.jpg"/>
  </g>
  <path class="fil0 str0" d="M251.37 233.42c22.81,0 41.3,18.49 41.3,41.3 0,22.8 -18.49,41.29 -41.3,41.29 -22.8,0 -41.29,-18.49 -41.29,-41.29 0,-22.81 18.49,-41.3 41.29,-41.3z"/>
  <path class="fil0 str0" d="M150.06 320.29c14.96,-11.22 9.82,-6.54 24.31,-12.62 14.5,-6.08 17.77,-9.82 19.64,-4.21 1.87,5.61 -0.93,8.88 -0.93,8.88l-6.55 7.95 -9.82 5.15 -14.03 7.01 -10.75 2.81 -5.14 0 -3.28 -5.61 6.55 -9.36z"/>
 </g>
</svg>
